<svg width="65" height="65" viewBox="0 0 65 65" fill="none" xmlns="http://www.w3.org/2000/svg">
<mask id="mask0_6_190" style="mask-type:luminance" maskUnits="userSpaceOnUse" x="0" y="0" width="65" height="65">
<path d="M36.5575 0H28.4425C12.7342 0 0 12.7342 0 28.4425V36.5575C0 52.2658 12.7342 65 28.4425 65H36.5575C52.2658 65 65 52.2658 65 36.5575V28.4425C65 12.7342 52.2658 0 36.5575 0Z" fill="white"/>
</mask>
<g mask="url(#mask0_6_190)">
<path d="M36.5575 0H28.4425C12.7342 0 0 12.7342 0 28.4425V36.5575C0 52.2658 12.7342 65 28.4425 65H36.5575C52.2658 65 65 52.2658 65 36.5575V28.4425C65 12.7342 52.2658 0 36.5575 0Z" fill="white"/>
<path fill-rule="evenodd" clip-rule="evenodd" d="M142.213 0H0V142.213H142.213V0ZM18.5817 40.0875L16.25 48.75L25.0079 46.415C28.4151 48.2469 32.3703 48.7919 36.1476 47.9499C39.9251 47.1078 43.2715 44.9352 45.5726 41.8308C47.8738 38.7265 48.9754 34.8985 48.6753 31.0494C48.3753 27.2001 46.6936 23.588 43.939 20.8757C41.1843 18.1634 37.5416 16.5331 33.6791 16.2835C29.8165 16.0341 25.9933 17.1823 22.911 19.5176C19.8289 21.8528 17.6943 25.2185 16.899 28.9968C16.1038 32.7753 16.7013 36.713 18.5817 40.0875ZM25.9719 43.4939L25.4303 43.1735L20.5371 44.4737L21.8408 39.6388L21.501 39.0803C20.2563 37.0585 19.5985 34.7316 19.6008 32.3591C19.5965 29.4975 20.5413 26.715 22.288 24.445C24.0347 22.1751 26.4852 20.5452 29.2576 19.8094C32.0299 19.0738 34.9684 19.2733 37.6152 20.3773C40.2618 21.4812 42.4681 23.4275 43.8901 25.9127C45.3122 28.3979 45.87 31.2826 45.4768 34.117C45.0835 36.9515 43.7613 39.5767 41.7162 41.5834C39.671 43.59 37.0178 44.8656 34.17 45.2111C31.3222 45.5567 28.4398 44.953 25.9719 43.4939ZM37.4892 34.0577C37.8869 34.1481 38.2587 34.328 38.5762 34.5834C38.6687 34.6375 38.7697 34.6936 38.8755 34.7523C39.4836 35.0894 40.2439 35.511 40.3847 36.1584C40.4536 36.53 40.4055 36.9138 40.247 37.2572C39.9773 37.8255 39.5717 38.319 39.0658 38.6942C38.56 39.0696 37.9694 39.3149 37.3461 39.409C36.2521 39.5328 35.1449 39.3588 34.1421 38.9054C33.1768 38.5757 32.2527 38.1363 31.388 37.596C29.665 36.5326 28.1653 35.1455 26.9722 33.5121C26.6052 33.0146 26.265 32.4981 25.9534 31.9644C25.5211 31.2679 25.1934 30.5121 24.9802 29.7209C24.8963 29.3917 24.8531 29.0535 24.8516 28.7138C24.8307 28.1088 24.9459 27.5067 25.189 26.9521C25.4321 26.3975 25.7967 25.9043 26.2563 25.5088C26.521 25.2738 26.8481 25.1202 27.1983 25.0666C27.5486 25.013 27.9069 25.0616 28.23 25.2067C28.8566 25.7346 29.3184 26.4305 29.5612 27.2119C29.8751 27.7695 30.0217 28.4052 29.9834 29.0433C29.8113 29.622 29.4954 30.148 29.0654 30.5726C28.9426 30.6774 28.8654 30.8258 28.8499 30.9863C28.8345 31.1469 28.8821 31.3071 28.9829 31.4334C30.1631 33.4558 31.9943 35.021 34.1788 35.8745C34.3003 35.9409 34.442 35.9608 34.5772 35.9305C34.7124 35.9002 34.832 35.8217 34.9133 35.7097C35.0342 35.5633 35.1551 35.3709 35.2823 35.1683C35.5613 34.7245 35.8716 34.2311 36.2812 34.0615C36.6784 33.9685 37.0914 33.9672 37.4892 34.0577Z" fill="#00D95F"/>
</g>
</svg>
